<svg width="121" height="243" viewBox="0 0 121 243" fill="none" xmlns="http://www.w3.org/2000/svg">
<path d="M66.6645 143.963L66.7431 127.436C66.8194 121.926 66.849 116.416 66.979 110.907C67.1876 99.8886 67.4942 88.8692 68.0803 77.8505C68.6672 88.8692 68.9738 99.8886 69.1817 110.907C69.3124 116.416 69.3412 121.926 69.4183 127.436L69.4969 143.963L69.4222 160.493C69.3428 166.001 69.3179 171.51 69.1863 177.02C68.9785 188.039 68.6703 199.057 68.0803 210.077C67.4903 199.057 67.1821 188.039 66.975 177.02C66.8427 171.51 66.8178 166.001 66.7392 160.493L66.6645 143.963ZM103.946 224.12C99.4546 227.297 94.3323 229.691 89.0007 231.434C83.6659 233.194 78.1116 234.326 72.513 235.006C66.9073 235.654 61.248 235.857 55.6174 235.598C49.9877 235.353 44.3812 234.639 38.9219 233.398C44.4832 234.13 50.0694 234.49 55.6501 234.56C61.2301 234.606 66.8093 234.348 72.3355 233.687C77.8618 233.041 83.3328 231.983 88.6566 230.451C93.9688 228.897 99.1479 226.869 103.946 224.12ZM104.278 218.674C105.109 218.23 105.93 217.772 106.744 217.299L107.409 216.913C110.221 215.233 112.926 213.372 115.496 211.312C111.11 216.279 105.486 220.29 99.3916 223.378C97.8434 224.104 96.3163 224.89 94.7254 225.537C93.1189 226.146 91.5319 226.813 89.9044 227.376C88.262 227.896 86.6205 228.427 84.9587 228.89C83.2822 229.3 81.6134 229.747 79.9283 230.126C78.2268 230.434 76.5293 230.761 74.8255 231.044C73.11 231.263 71.3976 231.509 69.6806 231.703L64.5069 232.063C62.779 232.109 61.0511 232.13 59.3255 232.142C52.4247 232.061 45.5239 231.255 38.9219 229.501C45.7395 230.163 52.5298 230.369 59.285 230.065C59.4516 230.053 59.6181 230.044 59.7847 230.033L66.5726 229.498L68.0282 229.342C72.4749 228.637 75.8085 225.593 75.8085 221.28V73.9233C75.8085 73.9233 78.1334 73.9877 85.59 72.1433C72.9504 73.4465 62.0178 68.3997 62.0178 63.867C62.0178 53.8385 68.9318 52.5492 78.321 48.9409C72.8819 49.9516 67.3339 50.4123 61.8068 50.4291C54.1759 50.3706 46.5217 49.6598 39.1329 47.8381C35.4474 46.9144 31.8219 45.7641 28.352 44.2817C24.9234 42.7328 21.6022 40.906 18.7831 38.5351C21.9299 40.5008 25.2993 42.0563 28.8198 43.2235C32.3161 44.4411 35.9261 45.348 39.5797 46.0164C43.2394 46.6468 46.9117 47.2186 50.6244 47.4848C54.3324 47.773 58.056 47.8578 61.7718 47.7671C63.6305 47.7693 65.4869 47.6801 67.3432 47.5938C69.1957 47.4666 71.045 47.3093 72.8913 47.1207C76.5892 46.7733 80.2583 46.1912 83.8908 45.4401C87.5164 44.6686 91.0929 43.6462 94.5129 42.2604C97.9439 40.8811 101.135 39.0784 104.153 36.9328C103.11 38.4641 101.736 39.8112 100.158 40.8467C99.3955 41.3791 98.5953 41.8552 97.7789 42.3035C107.534 40.631 108.139 44.5208 109.28 47.2837C112.423 54.896 105.672 64.251 96.6394 68.9635C104.527 66.0931 109.99 61.8464 112.8 59.2766L114.938 57.1397C114.98 57.0914 115.005 57.0621 115.005 57.0621V57.0724L116.187 55.8906L115.713 161.557L112.489 62.1587C110.109 63.6783 107.702 65.0905 105.59 66.2767C101.478 68.5876 98.9487 72.7481 98.9487 77.2515V215.219C98.9487 217.928 101.653 219.632 104.278 218.674ZM7.21216 40.4043C8.08935 38.8554 9.1588 37.4359 10.3676 36.1546C11.5631 34.8653 12.8894 33.7047 14.2982 32.6582C12.2161 35.4006 10.303 38.2125 9.12766 41.219C8.56024 42.7233 8.09946 44.2422 7.95391 45.7911C7.87763 46.5641 7.8325 47.3342 7.85741 48.1058C7.8792 48.8612 7.96948 49.5874 8.13838 50.315C8.81165 53.2206 10.654 55.8598 12.9657 58.1072C15.2953 60.3596 18.1308 62.2084 21.1383 63.7646C24.1412 65.3443 27.3519 66.6219 30.6528 67.6684C33.9476 68.7434 37.3442 69.5764 40.7868 70.2382C47.6752 71.5824 54.748 72.1835 61.8777 72.3707C54.794 73.1774 47.5678 73.1613 40.4195 72.2669C36.8477 71.8069 33.3 71.1107 29.8083 70.1717C26.3314 69.1895 22.9129 67.9587 19.6447 66.3718C17.6093 65.356 15.6292 64.2005 13.776 62.8586L12.3951 187.461L10.9887 60.59C10.8688 60.481 10.7451 60.3757 10.6268 60.2638C9.33004 59.055 8.1446 57.6662 7.19034 56.1348V206.327C7.19034 219.683 26.5766 228.261 26.5766 228.261C18.3697 225.473 13.7899 223.708 9.07395 218.434C7.21916 216.36 4.05674 213.027 4.05674 207.218V51.9598C4.05674 50.5023 4.33618 47.7569 5.45233 44.7461C5.85007 43.222 6.43615 41.755 7.21216 40.4043ZM91.0423 233.287C92.0813 232.936 93.1251 232.592 94.1743 232.256C93.164 232.68 92.1499 233.099 91.1287 233.506L88.0176 234.618L84.8467 235.576L81.6367 236.414C77.3294 237.449 72.9247 238.104 68.5037 238.532C64.0749 238.889 59.6228 239.014 55.1862 238.812L51.8635 238.603L48.5516 238.298L45.2585 237.86C44.1641 237.691 43.0744 237.501 41.9871 237.308L45.2896 237.626L48.5944 237.865L51.9008 238.044L55.2088 238.13C59.6189 238.19 64.0313 238.072 68.415 237.651C72.8064 237.298 77.1636 236.638 81.4694 235.753L84.6879 235.037L87.8767 234.206L91.0423 233.287ZM12.9602 24.1538C12.9602 12.7358 34.2861 3.44737 60.5 3.44737C86.7131 3.44737 108.04 12.7358 108.04 24.1538C108.04 35.571 86.7131 44.8602 60.5 44.8602C34.2861 44.8602 12.9602 35.571 12.9602 24.1538ZM110.309 29.8675C111.216 28.0407 111.708 26.1298 111.708 24.1538C111.708 10.6099 89.2147 -3.05176e-05 60.5 -3.05176e-05C31.7845 -3.05176e-05 9.29188 10.6099 9.29188 24.1538C9.29188 26.1298 9.78305 28.0407 10.6898 29.8675C4.13615 35.1893 0 41.4925 0 48.2623V209.477L0.0365989 209.867C3.78277 229.348 28.6462 242.953 60.5 242.953C91.131 242.953 115.413 229.724 120.923 210.035L121 209.761V48.2623C121 41.4925 116.864 35.1893 110.309 29.8675Z" fill="#4A8C66"/>
<path d="M59.4525 18.6198C57.8694 18.7376 56.5501 18.4136 56.5065 17.8973C56.4637 17.3803 57.7113 16.8669 59.2953 16.7492C60.8784 16.6314 62.1977 16.9546 62.2413 17.471C62.2841 17.988 61.0364 18.5028 59.4525 18.6198ZM55.5522 19.0586C55.2495 18.9731 54.935 18.8034 54.7521 18.4772C54.5497 18.1379 54.7334 17.6984 54.9879 17.509C55.2393 17.2947 55.5468 17.2048 55.8472 17.1623C55.6223 17.3591 55.4075 17.5441 55.2619 17.7393C55.1257 17.9405 55.0743 18.124 55.1771 18.2849C55.2619 18.456 55.4674 18.6133 55.6978 18.7405C55.9329 18.8656 56.1944 18.9775 56.4769 19.0937C56.1772 19.1486 55.8589 19.1479 55.5522 19.0586ZM53.2896 17.8556C51.5477 16.0807 52.463 15.1929 53.9092 14.5552C53.9092 14.5552 53.9091 15.2763 54.0562 15.7143C54.2041 16.1524 55.0588 16.4413 55.0588 16.4413C55.0588 16.4413 53.5838 16.8574 53.2896 17.8556ZM67.9092 18.2132C67.7909 19.3343 67.1223 21.0354 61.4949 20.2222C64.8589 19.0937 64.8005 15.563 60.1172 15.1556C62.2032 13.8992 62.5636 12.7993 60.9734 12.6516C58.6337 12.4337 51.2628 13.1964 50.7506 14.8229C50.2393 16.45 51.6558 20.7392 59.4875 21.2943C67.3185 21.8493 68.6572 20.8269 67.9092 18.2132Z" fill="#4A8C66"/>
<path d="M66.4918 17.0264C66.2809 16.3206 65.8622 15.8058 65.3928 15.337C64.9032 14.888 64.3646 14.4836 63.6197 14.2686C63.8322 14.9728 64.2517 15.4877 64.7188 15.9579C65.2076 16.4084 65.7454 16.8128 66.4918 17.0264Z" fill="#4A8C66"/>
<path d="M28.9485 20.8775C28.5025 22.3145 28.4394 23.9468 29.0613 25.4569C29.6917 26.9583 30.9029 28.2082 32.2875 29.1047C33.666 30.0291 35.218 30.6471 36.7724 31.148C37.5577 31.382 38.3501 31.5875 39.1471 31.755C39.5417 31.845 39.9457 31.9261 40.359 31.9985L40.9746 32.1104C41.1801 32.1382 41.388 32.1426 41.595 32.1587C44.8921 32.4081 48.1245 32.2567 51.3181 31.7382C54.4976 31.2277 57.6297 30.4284 60.55 29.1698C57.4063 29.738 54.2719 30.1447 51.1383 30.3853C48.0156 30.6134 44.8508 30.6654 41.8028 30.4021C40.3076 30.258 38.7813 29.9216 37.3055 29.5274C35.8204 29.1545 34.4007 28.6162 33.097 27.9266C31.805 27.2245 30.6538 26.2987 29.9152 25.0811C29.1477 23.87 28.9243 22.384 28.9485 20.8775Z" fill="#4A8C66"/>
<path d="M39.0776 15.714C40.3401 15.4185 41.6937 15.2862 43.0106 15.6021C43.6629 15.7637 44.2895 16.0387 44.8203 16.427C45.3566 16.8095 45.7893 17.2973 46.1225 17.8268C45.1737 16.9748 44.1128 16.3115 42.8923 16.0306C41.6797 15.7242 40.3876 15.763 39.0776 15.714ZM39.1524 17.2366C39.2465 17.0523 39.4333 16.9141 39.6645 16.8585C39.8435 16.8161 40.1487 16.7934 40.5168 16.7934C41.5045 16.7934 42.939 16.9521 43.5586 17.2885C45.1456 18.1515 45.5309 19.4883 45.6111 19.8774C45.7185 20.3973 45.6352 20.7279 45.5301 20.8537C45.3029 21.1272 44.7331 21.31 44.0061 21.3436C42.8145 21.3985 41.1901 21.0401 40.2522 20.1143C38.9928 18.8718 38.8581 17.8136 39.1524 17.2366ZM45.1775 15.0843C43.7501 14.3077 39.8996 14.1066 38.7967 14.3706C38.2728 14.4971 37.8463 14.8159 37.6268 15.2467C37.0361 16.4058 37.3482 18.4725 39.3789 20.4763C40.8297 21.9075 43.1795 22.4011 44.9183 22.4011C45.0553 22.4011 45.1892 22.3982 45.3177 22.3923C46.7506 22.3265 47.8574 21.9448 48.354 21.3466C48.6746 20.9619 48.7641 20.2364 48.5929 19.4078C48.4583 18.7562 47.8153 16.517 45.1775 15.0843Z" fill="#4A8C66"/>
<path d="M20.1304 22.3971C20.1304 18.9731 23.5886 16.2899 26.6443 14.5874L27.0273 14.3819C27.6119 14.0667 28.2361 13.761 28.886 13.4634C28.7988 13.8956 28.7669 14.3563 28.8027 14.8485C29.1529 19.6737 35.5728 26.0105 38.3398 26.8376C40.6328 27.5244 43.4698 27.3715 46.756 27.196C48.7276 27.0907 50.963 26.9708 53.3206 27.0271C55.8868 27.0885 58.3261 27.4805 60.6861 27.8608C63.225 28.2688 65.8317 28.6886 68.5901 28.6886C69.3778 28.6886 70.178 28.655 70.9929 28.576C73.1404 28.369 74.3242 27.4819 74.9858 26.5905C76.569 26.8128 78.4354 26.8713 80.6561 26.6292C90.4157 25.5659 94.8251 19.2686 89.7868 15.0555C85.7962 11.7185 73.0773 9.86607 65.5305 10.2303C64.6151 9.73956 63.8002 9.40461 63.0974 9.24007C61.2006 8.79323 56.6698 9.33806 52.2877 9.86461C49.6927 10.1761 47.2417 10.4701 45.9465 10.4701C44.6537 10.4701 43.1219 10.3509 41.4999 10.2237C40.797 10.1696 40.0685 10.1133 39.3244 10.0635C45.7706 8.60017 53.2606 7.80888 60.8993 7.80888C83.0012 7.80888 101.673 14.4887 101.673 22.3971C101.673 28.3815 91.0493 33.8626 75.2388 36.0368L74.1522 36.178C73.5988 36.2475 73.0407 36.314 72.4686 36.3711C71.1813 36.5122 69.9702 36.6204 68.7598 36.7053C68.4158 36.7316 68.0757 36.7543 67.7277 36.7755C66.4186 36.8559 65.0938 36.9122 63.7823 36.9429C63.2437 36.959 62.7051 36.9678 62.1626 36.9759L62.0544 36.9773C61.673 36.9817 61.2916 36.9817 60.9055 36.9817C60.5327 36.9744 60.1295 36.9817 59.7489 36.9781L59.6345 36.9759C59.0928 36.9678 58.5542 36.959 58.0093 36.9429C56.6612 36.9115 55.3295 36.8537 54.039 36.7704C53.7136 36.7535 53.3875 36.7316 53.0544 36.7045C51.8028 36.6175 50.5574 36.5071 49.351 36.3754C48.7758 36.314 48.21 36.2475 47.6519 36.1787L46.5614 36.0376C30.7525 33.8626 20.1304 28.3815 20.1304 22.3971ZM42.6362 25.4577C41.2796 25.386 39.8949 25.2441 38.6262 24.7775C39.9525 25.0489 41.2959 25.0964 42.6378 25.0233C43.9789 24.9728 45.32 24.8507 46.6681 24.7505C49.3643 24.5348 52.0853 24.3863 54.8282 24.5538C57.568 24.7388 60.2338 25.2741 62.8779 25.7392C65.5227 26.1985 68.1823 26.5656 70.8964 26.4786C68.2181 26.9101 65.4472 26.7696 62.7627 26.4208C60.0688 26.0903 57.4224 25.5995 54.7605 25.4379C52.104 25.2602 49.4094 25.3663 46.7101 25.4416C45.3581 25.4825 43.9991 25.5125 42.6362 25.4577ZM41.3434 11.9927C43.0059 12.1229 44.5759 12.2458 45.9465 12.2458C47.3616 12.2458 49.8709 11.9445 52.5274 11.6249C56.3405 11.1663 61.0877 10.5988 62.6389 10.9608C63.6944 11.2095 65.2106 12.0176 67.0233 13.2974H67.0241C68.6104 14.4163 69.9865 15.778 71.1143 17.3459C73.8051 21.0859 73.7031 22.6575 73.4027 23.2623C73.138 23.7939 72.422 24.1194 71.2731 24.2305C67.8616 24.5574 64.7607 24.0587 61.4768 23.5314C59.0515 23.1409 56.5429 22.7372 53.8413 22.6728C53.407 22.6619 52.9773 22.6575 52.5539 22.6575C50.6018 22.6575 48.7711 22.7555 47.121 22.844C44.0225 23.01 41.3473 23.1526 39.3851 22.5661C37.0983 21.883 31.4615 15.4584 31.8063 12.6553C31.8406 12.3752 31.9052 11.8531 33.1077 11.7653C35.8452 11.5627 38.7663 11.7923 41.3434 11.9927ZM100.119 14.1311C100.119 15.0511 98.3891 14.2971 96.9826 13.5563C89.4864 9.00239 76.2677 6.03325 60.8993 6.03325C51.1171 6.03325 41.9342 7.24138 34.3438 9.52747C34.0511 9.61596 33.7787 9.71176 33.493 9.80317C32.854 9.86534 32.2282 10.0131 31.6242 10.2837C31.5611 10.3122 31.5082 10.3465 31.4475 10.3765C31.3572 10.4197 31.2693 10.4643 31.186 10.5133C31.0544 10.5849 30.9253 10.6566 30.8046 10.7356C29.174 11.3506 27.6648 12.0088 26.3268 12.7153L26.1952 12.7109L25.9804 12.8966C25.5656 13.1211 25.1717 13.3522 24.7888 13.5841C23.4967 14.2971 21.7828 15.1045 21.7828 14.1311C21.7828 12.5778 24.1443 10.3597 30.4816 6.33456C21.438 9.64887 15.7615 14.4243 15.7615 19.7351C15.7615 23.2301 18.2219 26.6607 22.4841 29.6166C27.1814 33.3573 35.5315 36.3133 46.2914 37.7942L47.3974 37.9375C47.9741 38.0092 48.5509 38.0765 49.1362 38.1386C50.366 38.2725 51.6378 38.3858 52.9026 38.4736C53.2428 38.5014 53.5875 38.5248 53.9215 38.5423C55.2275 38.6257 56.5873 38.6842 57.9548 38.7164C58.502 38.7339 59.0508 38.7427 59.6026 38.7508L59.7217 38.7529C60.1124 38.7573 60.5031 38.7573 60.8993 38.7573C61.2947 38.7573 61.6862 38.7573 62.0816 38.7522L62.1945 38.7508C62.7471 38.7427 63.2951 38.7339 63.8368 38.7164C65.1662 38.6857 66.5166 38.6286 67.8523 38.5467C68.2111 38.524 68.5606 38.5014 68.9077 38.4743C70.1367 38.3888 71.3727 38.2776 72.678 38.135C73.2579 38.0765 73.8331 38.0092 74.4091 37.9368L75.5104 37.7935C85.8398 36.3725 93.9479 33.5921 98.7362 30.0606C103.426 27.0336 106.14 23.4422 106.14 19.7351C106.14 14.4243 100.463 9.64887 91.4198 6.33456C97.7579 10.3597 100.119 12.5778 100.119 14.1311Z" fill="#4A8C66"/>
</svg>
